<?xml version="1.0" encoding="UTF-8" standalone="no"?>
<!-- Created with Inkscape (http://www.inkscape.org/) -->

<svg
   xmlns:dc="http://purl.org/dc/elements/1.1/"
   xmlns:cc="http://creativecommons.org/ns#"
   xmlns:rdf="http://www.w3.org/1999/02/22-rdf-syntax-ns#"
   xmlns:svg="http://www.w3.org/2000/svg"
   xmlns="http://www.w3.org/2000/svg"
   xmlns:xlink="http://www.w3.org/1999/xlink"
   xmlns:sodipodi="http://sodipodi.sourceforge.net/DTD/sodipodi-0.dtd"
   xmlns:inkscape="http://www.inkscape.org/namespaces/inkscape"
   width="333.13266"
   height="474.85104"
   id="svg14462"
   version="1.1"
   inkscape:version="0.47 r22583"
   sodipodi:docname="New document 39">
  <defs
     id="defs14464">
    <inkscape:perspective
       sodipodi:type="inkscape:persp3d"
       inkscape:vp_x="0 : 526.18109 : 1"
       inkscape:vp_y="0 : 1000 : 0"
       inkscape:vp_z="744.09448 : 526.18109 : 1"
       inkscape:persp3d-origin="372.04724 : 350.78739 : 1"
       id="perspective14470" />
    <inkscape:perspective
       id="perspective14429"
       inkscape:persp3d-origin="0.5 : 0.33333333 : 1"
       inkscape:vp_z="1 : 0.5 : 1"
       inkscape:vp_y="0 : 1000 : 0"
       inkscape:vp_x="0 : 0.5 : 1"
       sodipodi:type="inkscape:persp3d" />
    <linearGradient
       inkscape:collect="always"
       xlink:href="#linearGradient3892-5-9-31"
       id="linearGradient3898-2-5-9"
       x1="349.08765"
       y1="423.89441"
       x2="378.9917"
       y2="445.64441"
       gradientUnits="userSpaceOnUse" />
    <linearGradient
       inkscape:collect="always"
       id="linearGradient3892-5-9-31">
      <stop
         style="stop-color:#ffffff;stop-opacity:1;"
         offset="0"
         id="stop3894-4-7-48" />
      <stop
         style="stop-color:#ffffff;stop-opacity:0;"
         offset="1"
         id="stop3896-7-7-9" />
    </linearGradient>
    <linearGradient
       inkscape:collect="always"
       xlink:href="#linearGradient3884-4-7-7"
       id="linearGradient3890-4-6-6"
       x1="350.78955"
       y1="423.91379"
       x2="362.78955"
       y2="397.37589"
       gradientUnits="userSpaceOnUse" />
    <linearGradient
       inkscape:collect="always"
       id="linearGradient3884-4-7-7">
      <stop
         style="stop-color:#ffffff;stop-opacity:1;"
         offset="0"
         id="stop3886-3-3-73" />
      <stop
         style="stop-color:#ffffff;stop-opacity:0;"
         offset="1"
         id="stop3888-0-6-7" />
    </linearGradient>
    <linearGradient
       inkscape:collect="always"
       xlink:href="#linearGradient3713-1-8-6-2"
       id="linearGradient3880-7-5-1"
       gradientUnits="userSpaceOnUse"
       gradientTransform="translate(3.182538,-3.925347)"
       x1="341.75729"
       y1="463.62955"
       x2="359.53"
       y2="420.74323" />
    <linearGradient
       id="linearGradient3713-1-8-6-2">
      <stop
         style="stop-color:#ffffff;stop-opacity:0;"
         offset="0"
         id="stop3715-5-6-3-2" />
      <stop
         style="stop-color:#d2c8c8;stop-opacity:1;"
         offset="1"
         id="stop3717-5-8-9-1" />
    </linearGradient>
  </defs>
  <sodipodi:namedview
     id="base"
     pagecolor="#ffffff"
     bordercolor="#666666"
     borderopacity="1.0"
     inkscape:pageopacity="0.0"
     inkscape:pageshadow="2"
     inkscape:zoom="0.175"
     inkscape:cx="80.249099"
     inkscape:cy="186.0641"
     inkscape:document-units="px"
     inkscape:current-layer="layer1"
     showgrid="false"
     inkscape:window-width="741"
     inkscape:window-height="483"
     inkscape:window-x="0"
     inkscape:window-y="230"
     inkscape:window-maximized="0" />
  <metadata
     id="metadata14467">
    <rdf:RDF>
      <cc:Work
         rdf:about="">
        <dc:format>image/svg+xml</dc:format>
        <dc:type
           rdf:resource="http://purl.org/dc/dcmitype/StillImage" />
        <dc:title></dc:title>
      </cc:Work>
    </rdf:RDF>
  </metadata>
  <g
     inkscape:label="Layer 1"
     inkscape:groupmode="layer"
     id="layer1"
     transform="translate(-261.37407,-503.50803)">
    <g
       id="g3900-8-4-5"
       transform="matrix(7.2535491,0,0,7.2535491,-2154.5281,-2378.8775)">
      <path
         sodipodi:nodetypes="ccccccccc"
         id="rect3725-4-8-09"
         d="m 362.5,397.875 16,9.09375 0,38.90625 -28.90625,16.4375 0,-38.90625 -0.0312,38.9375 c -7.01657,-1.42783 -13.77289,-3.10411 -16,-9.15625 l 0.0312,-38.875 L 362.5,397.875 z"
         style="fill:#cccccc;fill-opacity:1;stroke:none" />
      <path
         sodipodi:nodetypes="ccccc"
         id="rect2833-4-3-1-0"
         d="m 349.58766,423.41336 28.90403,-16.44194 0,38.90404 -28.90403,16.44194 0,-38.90404 z"
         style="fill:url(#linearGradient3898-2-5-9);fill-opacity:1;stroke:#000000;stroke-width:1;stroke-linecap:round;stroke-linejoin:round;stroke-miterlimit:4;stroke-opacity:1;stroke-dasharray:none" />
      <path
         sodipodi:nodetypes="ccccc"
         id="rect2833-1-7-1-2-4"
         d="m 349.58754,423.41379 28.90403,-16.44194 -16,-9.09596 -28.90403,16.44194 c 2.64463,4.47975 9.03432,6.94293 16,9.09596 z"
         style="fill:url(#linearGradient3890-4-6-6);fill-opacity:1;stroke:#000000;stroke-width:1;stroke-linecap:round;stroke-linejoin:round;stroke-miterlimit:4;stroke-opacity:1;stroke-dasharray:none" />
      <path
         sodipodi:nodetypes="ccccc"
         id="rect2833-1-0-6-4-9-0"
         d="m 349.58754,423.41383 -0.0227,38.92671 c -7.01657,-1.42783 -13.77289,-3.10695 -16,-9.15909 l 0.0227,-38.86358 c 2.64463,4.47975 9.03432,6.94293 16,9.09596 z"
         style="fill:url(#linearGradient3880-7-5-1);fill-opacity:1;stroke:#000000;stroke-width:1;stroke-linecap:round;stroke-linejoin:round;stroke-miterlimit:4;stroke-opacity:1;stroke-dasharray:none" />
      <path
         sodipodi:nodetypes="cc"
         id="path3652-5-9-3-1"
         d="m 335.41468,447.58862 c 1.74608,2.9414 6.6977,5.48513 11.47322,5.44643"
         style="fill:none;stroke:#000000;stroke-width:1px;stroke-linecap:round;stroke-linejoin:round;stroke-opacity:1" />
      <path
         sodipodi:nodetypes="cc"
         id="path3652-6-6-2-9-3"
         d="m 335.25843,449.82054 c 1.74608,2.9414 6.6977,5.48513 11.47322,5.44643"
         style="fill:none;stroke:#000000;stroke-width:1px;stroke-linecap:round;stroke-linejoin:round;stroke-opacity:1" />
      <path
         sodipodi:nodetypes="cc"
         id="path3652-2-9-0-0-7"
         d="m 335.03522,452.09732 c 1.74608,2.9414 6.6977,5.48513 11.47322,5.44643"
         style="fill:none;stroke:#000000;stroke-width:1px;stroke-linecap:round;stroke-linejoin:round;stroke-opacity:1" />
      <path
         sodipodi:nodetypes="ccccc"
         id="rect3685-3-68-8-4"
         d="m 335.14137,421.94046 c 2.83396,2.56099 6.64342,4.00712 10.63072,5.25 l -0.004,1.32773 c -3.89359,-1.26873 -8.01282,-2.2272 -10.63072,-5.25 l 0.004,-1.32773 z"
         style="fill:#000000;fill-opacity:1;stroke:none" />
      <path
         sodipodi:nodetypes="ccccc"
         id="rect3685-0-7-9-8-1"
         d="m 335.11918,426.89797 c 2.83396,2.56099 6.64342,4.00712 10.63072,5.25 l -0.004,1.32773 c -3.89359,-1.26873 -8.01282,-2.2272 -10.63072,-5.25 l 0.004,-1.32773 z"
         style="fill:#000000;fill-opacity:1;stroke:none" />
      <path
         id="path3710-4-2-5-1"
         d="m 341.88669,440.05985 c 0,1.17157 -0.83103,2.12132 -1.85616,2.12132 -1.02512,0 -1.85615,-0.94975 -1.85615,-2.12132 0,-1.17157 0.83103,-2.12132 1.85615,-2.12132 1.02513,0 1.85616,0.94975 1.85616,2.12132 z"
         style="fill:#000000;fill-opacity:1;stroke:none" />
      <path
         sodipodi:nodetypes="cc"
         id="path3652-5-0-6-0-3"
         d="m 335.41484,447.58826 c 1.74608,2.9414 6.6977,5.48513 11.47322,5.44643"
         style="fill:none;stroke:#000000;stroke-width:1px;stroke-linecap:round;stroke-linejoin:round;stroke-opacity:1" />
      <path
         sodipodi:nodetypes="cc"
         id="path3652-6-6-7-6-9-03"
         d="m 335.25859,449.82018 c 1.74608,2.9414 6.6977,5.48513 11.47322,5.44643"
         style="fill:none;stroke:#000000;stroke-width:1px;stroke-linecap:round;stroke-linejoin:round;stroke-opacity:1" />
      <path
         sodipodi:nodetypes="cc"
         id="path3652-2-9-8-4-6-2"
         d="m 335.03538,452.09696 c 1.74608,2.9414 6.6977,5.48513 11.47322,5.44643"
         style="fill:none;stroke:#000000;stroke-width:1px;stroke-linecap:round;stroke-linejoin:round;stroke-opacity:1" />
      <path
         sodipodi:nodetypes="ccccc"
         id="rect3685-3-6-9-3-17"
         d="m 335.14153,421.9401 c 2.83396,2.56099 6.64342,4.00712 10.63072,5.25 l -0.004,1.32773 c -3.89359,-1.26873 -8.01282,-2.2272 -10.63072,-5.25 l 0.004,-1.32773 z"
         style="fill:#000000;fill-opacity:1;stroke:none" />
      <path
         sodipodi:nodetypes="ccccc"
         id="rect3685-0-7-8-5-8-5"
         d="m 335.11934,426.89761 c 2.83396,2.56099 6.64342,4.00712 10.63072,5.25 l -0.004,1.32773 c -3.89359,-1.26873 -8.01282,-2.2272 -10.63072,-5.25 l 0.004,-1.32773 z"
         style="fill:#000000;fill-opacity:1;stroke:none" />
      <path
         id="path3710-4-8-0-5-6"
         d="m 341.88685,440.05949 c 0,1.17157 -0.83103,2.12132 -1.85616,2.12132 -1.02512,0 -1.85615,-0.94975 -1.85615,-2.12132 0,-1.17157 0.83103,-2.12132 1.85615,-2.12132 1.02513,0 1.85616,0.94975 1.85616,2.12132 z"
         style="fill:#000000;fill-opacity:1;stroke:none" />
    </g>
  </g>
</svg>
