<?xml version="1.0" encoding="UTF-8" standalone="no"?>
<!DOCTYPE svg PUBLIC "-//W3C//DTD SVG 1.1//EN"
 "http://www.w3.org/Graphics/SVG/1.1/DTD/svg11.dtd">
<!-- Generated by graphviz version 2.38.0 (20140413.2041)
 -->
<!-- Title: %3 Pages: 1 -->
<svg width="224pt" height="152pt"
 viewBox="0.00 0.00 224.00 152.00" xmlns="http://www.w3.org/2000/svg" xmlns:xlink="http://www.w3.org/1999/xlink">
<g id="graph0" class="graph" transform="scale(1 1) rotate(0) translate(4 148)">
<title>%3</title>
<polygon fill="none" stroke="none" points="-4,4 -4,-148 220,-148 220,4 -4,4"/>
<!-- x1 -->
<g id="node1" class="node"><title>x1</title>
<polygon fill="none" stroke="white" points="54,-36 0,-36 0,-0 54,-0 54,-36"/>
</g>
<!-- f1 -->
<g id="node7" class="node"><title>f1</title>
<ellipse fill="none" stroke="white" cx="108" cy="-18" rx="18" ry="18"/>
<text text-anchor="middle" x="108" y="-14.3" font-family="Times,serif" font-size="14.00" fill="#ffffff">f</text>
</g>
<!-- x1&#45;&gt;f1 -->
<g id="edge1" class="edge"><title>x1&#45;&gt;f1</title>
<path fill="none" stroke="white" d="M54.3059,-18C62.4202,-18 71.3739,-18 79.5625,-18"/>
<polygon fill="white" stroke="white" points="79.7516,-21.5001 89.7516,-18 79.7516,-14.5001 79.7516,-21.5001"/>
</g>
<!-- x2 -->
<g id="node2" class="node"><title>x2</title>
<polygon fill="none" stroke="white" points="54,-90 0,-90 0,-54 54,-54 54,-90"/>
</g>
<!-- f2 -->
<g id="node8" class="node"><title>f2</title>
<ellipse fill="none" stroke="white" cx="108" cy="-72" rx="18" ry="18"/>
<text text-anchor="middle" x="108" y="-68.3" font-family="Times,serif" font-size="14.00" fill="#ffffff">f</text>
</g>
<!-- x2&#45;&gt;f2 -->
<g id="edge3" class="edge"><title>x2&#45;&gt;f2</title>
<path fill="none" stroke="white" d="M54.3059,-72C62.4202,-72 71.3739,-72 79.5625,-72"/>
<polygon fill="white" stroke="white" points="79.7516,-75.5001 89.7516,-72 79.7516,-68.5001 79.7516,-75.5001"/>
</g>
<!-- x3 -->
<g id="node3" class="node"><title>x3</title>
<polygon fill="none" stroke="white" points="54,-144 0,-144 0,-108 54,-108 54,-144"/>
</g>
<!-- f3 -->
<g id="node9" class="node"><title>f3</title>
<ellipse fill="none" stroke="white" cx="108" cy="-126" rx="18" ry="18"/>
<text text-anchor="middle" x="108" y="-122.3" font-family="Times,serif" font-size="14.00" fill="#ffffff">f</text>
</g>
<!-- x3&#45;&gt;f3 -->
<g id="edge5" class="edge"><title>x3&#45;&gt;f3</title>
<path fill="none" stroke="white" d="M54.3059,-126C62.4202,-126 71.3739,-126 79.5625,-126"/>
<polygon fill="white" stroke="white" points="79.7516,-129.5 89.7516,-126 79.7516,-122.5 79.7516,-129.5"/>
</g>
<!-- y1 -->
<g id="node4" class="node"><title>y1</title>
<polygon fill="none" stroke="white" points="216,-36 162,-36 162,-0 216,-0 216,-36"/>
</g>
<!-- y2 -->
<g id="node5" class="node"><title>y2</title>
<polygon fill="none" stroke="white" points="216,-90 162,-90 162,-54 216,-54 216,-90"/>
</g>
<!-- y3 -->
<g id="node6" class="node"><title>y3</title>
<polygon fill="none" stroke="white" points="216,-144 162,-144 162,-108 216,-108 216,-144"/>
</g>
<!-- f1&#45;&gt;y1 -->
<g id="edge2" class="edge"><title>f1&#45;&gt;y1</title>
<path fill="none" stroke="white" d="M126.142,-18C133.644,-18 142.75,-18 151.642,-18"/>
<polygon fill="white" stroke="white" points="151.874,-21.5001 161.874,-18 151.874,-14.5001 151.874,-21.5001"/>
</g>
<!-- f2&#45;&gt;y2 -->
<g id="edge4" class="edge"><title>f2&#45;&gt;y2</title>
<path fill="none" stroke="white" d="M126.142,-72C133.644,-72 142.75,-72 151.642,-72"/>
<polygon fill="white" stroke="white" points="151.874,-75.5001 161.874,-72 151.874,-68.5001 151.874,-75.5001"/>
</g>
<!-- f3&#45;&gt;y3 -->
<g id="edge6" class="edge"><title>f3&#45;&gt;y3</title>
<path fill="none" stroke="white" d="M126.142,-126C133.644,-126 142.75,-126 151.642,-126"/>
<polygon fill="white" stroke="white" points="151.874,-129.5 161.874,-126 151.874,-122.5 151.874,-129.5"/>
</g>
</g>
</svg>
