<?xml version="1.0" encoding="UTF-8" standalone="no"?>
<!DOCTYPE svg PUBLIC "-//W3C//DTD SVG 1.1//EN"
 "http://www.w3.org/Graphics/SVG/1.1/DTD/svg11.dtd">
<!-- Generated by graphviz version 2.38.0 (20140413.2041)
 -->
<!-- Title: %3 Pages: 1 -->
<svg width="224pt" height="152pt"
 viewBox="0.00 0.00 224.00 152.00" xmlns="http://www.w3.org/2000/svg" xmlns:xlink="http://www.w3.org/1999/xlink">
<g id="graph0" class="graph" transform="scale(1 1) rotate(0) translate(4 148)">
<title>%3</title>
<polygon fill="none" stroke="none" points="-4,4 -4,-148 220,-148 220,4 -4,4"/>
<!-- x1 -->
<g id="node1" class="node"><title>x1</title>
<polygon fill="none" stroke="white" points="54,-144 0,-144 0,-108 54,-108 54,-144"/>
</g>
<!-- f -->
<g id="node4" class="node"><title>f</title>
<ellipse fill="none" stroke="white" cx="108" cy="-72" rx="18" ry="18"/>
<text text-anchor="middle" x="108" y="-68.3" font-family="Times,serif" font-size="14.00" fill="#ffffff">f</text>
</g>
<!-- x1&#45;&gt;f -->
<g id="edge1" class="edge"><title>x1&#45;&gt;f</title>
<path fill="none" stroke="white" d="M54.3059,-108.019C63.966,-101.416 74.8155,-93.9995 84.1477,-87.6205"/>
<polygon fill="white" stroke="white" points="86.2612,-90.4154 92.5418,-81.8828 82.311,-84.6365 86.2612,-90.4154"/>
</g>
<!-- x2 -->
<g id="node2" class="node"><title>x2</title>
<polygon fill="none" stroke="white" points="54,-90 0,-90 0,-54 54,-54 54,-90"/>
</g>
<!-- x2&#45;&gt;f -->
<g id="edge3" class="edge"><title>x2&#45;&gt;f</title>
<path fill="none" stroke="white" d="M54.3059,-72C62.4202,-72 71.3739,-72 79.5625,-72"/>
<polygon fill="white" stroke="white" points="79.7516,-75.5001 89.7516,-72 79.7516,-68.5001 79.7516,-75.5001"/>
</g>
<!-- x3 -->
<g id="node3" class="node"><title>x3</title>
<polygon fill="none" stroke="white" points="54,-36 0,-36 0,-0 54,-0 54,-36"/>
</g>
<!-- x3&#45;&gt;f -->
<g id="edge4" class="edge"><title>x3&#45;&gt;f</title>
<path fill="none" stroke="white" d="M54.3059,-35.9812C63.966,-42.5843 74.8155,-50.0005 84.1477,-56.3795"/>
<polygon fill="white" stroke="white" points="82.311,-59.3635 92.5418,-62.1172 86.2612,-53.5846 82.311,-59.3635"/>
</g>
<!-- y -->
<g id="node5" class="node"><title>y</title>
<polygon fill="none" stroke="white" points="216,-90 162,-90 162,-54 216,-54 216,-90"/>
</g>
<!-- f&#45;&gt;y -->
<g id="edge2" class="edge"><title>f&#45;&gt;y</title>
<path fill="none" stroke="white" d="M126.142,-72C133.644,-72 142.75,-72 151.642,-72"/>
<polygon fill="white" stroke="white" points="151.874,-75.5001 161.874,-72 151.874,-68.5001 151.874,-75.5001"/>
</g>
</g>
</svg>
