<?xml version="1.0" encoding="UTF-8" standalone="no"?>
<!DOCTYPE svg PUBLIC "-//W3C//DTD SVG 1.1//EN"
 "http://www.w3.org/Graphics/SVG/1.1/DTD/svg11.dtd">
<!-- Generated by graphviz version 2.38.0 (20140413.2041)
 -->
<!-- Title: %3 Pages: 1 -->
<svg width="242pt" height="152pt"
 viewBox="0.00 0.00 242.00 152.00" xmlns="http://www.w3.org/2000/svg" xmlns:xlink="http://www.w3.org/1999/xlink">
<g id="graph0" class="graph" transform="scale(1 1) rotate(0) translate(4 148)">
<title>%3</title>
<polygon fill="none" stroke="none" points="-4,4 -4,-148 238,-148 238,4 -4,4"/>
<!-- x1 -->
<g id="node1" class="node"><title>x1</title>
<polygon fill="none" stroke="white" points="54,-144 0,-144 0,-108 54,-108 54,-144"/>
</g>
<!-- f -->
<g id="node7" class="node"><title>f</title>
<polygon fill="none" stroke="white" points="117,-90 90,-72 117,-54 144,-72 117,-90"/>
<text text-anchor="middle" x="117" y="-68.3" font-family="Times,serif" font-size="14.00" fill="#ffffff">f</text>
</g>
<!-- x1&#45;&gt;f -->
<g id="edge1" class="edge"><title>x1&#45;&gt;f</title>
<path fill="none" stroke="white" d="M54.4029,-109.798C66.8666,-102.15 81.5857,-93.1179 93.5097,-85.8009"/>
<polygon fill="white" stroke="white" points="95.684,-88.5731 102.377,-80.3598 92.0229,-82.6068 95.684,-88.5731"/>
</g>
<!-- x2 -->
<g id="node2" class="node"><title>x2</title>
<polygon fill="none" stroke="white" points="54,-90 0,-90 0,-54 54,-54 54,-90"/>
</g>
<!-- x2&#45;&gt;f -->
<g id="edge3" class="edge"><title>x2&#45;&gt;f</title>
<path fill="none" stroke="white" d="M54.4029,-72C62.3932,-72 71.3106,-72 79.8241,-72"/>
<polygon fill="white" stroke="white" points="79.919,-75.5001 89.919,-72 79.919,-68.5001 79.919,-75.5001"/>
</g>
<!-- x3 -->
<g id="node3" class="node"><title>x3</title>
<polygon fill="none" stroke="white" points="54,-36 0,-36 0,-0 54,-0 54,-36"/>
</g>
<!-- x3&#45;&gt;f -->
<g id="edge5" class="edge"><title>x3&#45;&gt;f</title>
<path fill="none" stroke="white" d="M54.4029,-34.2018C66.8666,-41.85 81.5857,-50.8821 93.5097,-58.1991"/>
<polygon fill="white" stroke="white" points="92.0229,-61.3932 102.377,-63.6402 95.684,-55.4269 92.0229,-61.3932"/>
</g>
<!-- y1 -->
<g id="node4" class="node"><title>y1</title>
<polygon fill="none" stroke="white" points="234,-144 180,-144 180,-108 234,-108 234,-144"/>
</g>
<!-- y2 -->
<g id="node5" class="node"><title>y2</title>
<polygon fill="none" stroke="white" points="234,-90 180,-90 180,-54 234,-54 234,-90"/>
</g>
<!-- y3 -->
<g id="node6" class="node"><title>y3</title>
<polygon fill="none" stroke="white" points="234,-36 180,-36 180,-0 234,-0 234,-36"/>
</g>
<!-- f&#45;&gt;y1 -->
<g id="edge2" class="edge"><title>f&#45;&gt;y1</title>
<path fill="none" stroke="white" d="M131.75,-80.4375C142.298,-86.9101 157.341,-96.1411 171.132,-104.604"/>
<polygon fill="white" stroke="white" points="169.6,-107.77 179.954,-110.017 173.262,-101.804 169.6,-107.77"/>
</g>
<!-- f&#45;&gt;y2 -->
<g id="edge4" class="edge"><title>f&#45;&gt;y2</title>
<path fill="none" stroke="white" d="M144.403,-72C152.393,-72 161.311,-72 169.824,-72"/>
<polygon fill="white" stroke="white" points="169.919,-75.5001 179.919,-72 169.919,-68.5001 169.919,-75.5001"/>
</g>
<!-- f&#45;&gt;y3 -->
<g id="edge6" class="edge"><title>f&#45;&gt;y3</title>
<path fill="none" stroke="white" d="M131.75,-63.5625C142.298,-57.0899 157.341,-47.8589 171.132,-39.3962"/>
<polygon fill="white" stroke="white" points="173.262,-42.1959 179.954,-33.9826 169.6,-36.2297 173.262,-42.1959"/>
</g>
</g>
</svg>
