<?xml version="1.0" encoding="UTF-8" standalone="no"?>
<!DOCTYPE svg PUBLIC "-//W3C//DTD SVG 1.1//EN"
 "http://www.w3.org/Graphics/SVG/1.1/DTD/svg11.dtd">
<!-- Generated by graphviz version 2.38.0 (20140413.2041)
 -->
<!-- Title: %3 Pages: 1 -->
<svg width="224pt" height="206pt"
 viewBox="0.00 0.00 224.00 206.00" xmlns="http://www.w3.org/2000/svg" xmlns:xlink="http://www.w3.org/1999/xlink">
<g id="graph0" class="graph" transform="scale(1 1) rotate(0) translate(4 202)">
<title>%3</title>
<polygon fill="none" stroke="none" points="-4,4 -4,-202 220,-202 220,4 -4,4"/>
<!-- x1 -->
<g id="node1" class="node"><title>x1</title>
<polygon fill="none" stroke="white" points="54,-184 0,-184 0,-148 54,-148 54,-184"/>
</g>
<!-- f0 -->
<g id="node4" class="node"><title>f0</title>
<ellipse fill="none" stroke="white" cx="108" cy="-180" rx="18" ry="18"/>
<text text-anchor="middle" x="108" y="-176.3" font-family="Times,serif" font-size="14.00" fill="#ffffff">f</text>
</g>
<!-- x1&#45;&gt;f0 -->
<g id="edge1" class="edge"><title>x1&#45;&gt;f0</title>
<path fill="none" stroke="white" d="M54.3059,-170.662C62.6376,-172.138 71.8543,-173.772 80.219,-175.254"/>
<polygon fill="white" stroke="white" points="79.7707,-178.729 90.228,-177.028 80.9922,-171.836 79.7707,-178.729"/>
</g>
<!-- f1 -->
<g id="node5" class="node"><title>f1</title>
<ellipse fill="none" stroke="white" cx="108" cy="-126" rx="18" ry="18"/>
<text text-anchor="middle" x="108" y="-122.3" font-family="Times,serif" font-size="14.00" fill="#ffffff">f</text>
</g>
<!-- x1&#45;&gt;f1 -->
<g id="edge3" class="edge"><title>x1&#45;&gt;f1</title>
<path fill="none" stroke="white" d="M54.3059,-152.681C63.4035,-148.074 73.5561,-142.934 82.5027,-138.404"/>
<polygon fill="white" stroke="white" points="84.2898,-141.422 91.6304,-133.782 81.1277,-135.177 84.2898,-141.422"/>
</g>
<!-- x2 -->
<g id="node2" class="node"><title>x2</title>
<polygon fill="none" stroke="white" points="54,-103 0,-103 0,-67 54,-67 54,-103"/>
</g>
<!-- x2&#45;&gt;f1 -->
<g id="edge5" class="edge"><title>x2&#45;&gt;f1</title>
<path fill="none" stroke="white" d="M54.3059,-98.6524C63.4035,-103.374 73.5561,-108.643 82.5027,-113.286"/>
<polygon fill="white" stroke="white" points="81.1422,-116.523 91.6304,-118.023 84.3668,-110.31 81.1422,-116.523"/>
</g>
<!-- f2 -->
<g id="node6" class="node"><title>f2</title>
<ellipse fill="none" stroke="white" cx="108" cy="-72" rx="18" ry="18"/>
<text text-anchor="middle" x="108" y="-68.3" font-family="Times,serif" font-size="14.00" fill="#ffffff">f</text>
</g>
<!-- x2&#45;&gt;f2 -->
<g id="edge6" class="edge"><title>x2&#45;&gt;f2</title>
<path fill="none" stroke="white" d="M54.3059,-80.6712C62.5114,-79.3209 71.5752,-77.8294 79.8382,-76.4697"/>
<polygon fill="white" stroke="white" points="80.4526,-79.9157 89.7516,-74.8383 79.316,-73.0086 80.4526,-79.9157"/>
</g>
<!-- x3 -->
<g id="node3" class="node"><title>x3</title>
<polygon fill="none" stroke="white" points="54,-36 0,-36 0,-0 54,-0 54,-36"/>
</g>
<!-- x3&#45;&gt;f2 -->
<g id="edge8" class="edge"><title>x3&#45;&gt;f2</title>
<path fill="none" stroke="white" d="M54.3059,-35.9812C63.966,-42.5843 74.8155,-50.0005 84.1477,-56.3795"/>
<polygon fill="white" stroke="white" points="82.311,-59.3635 92.5418,-62.1172 86.2612,-53.5846 82.311,-59.3635"/>
</g>
<!-- f3 -->
<g id="node7" class="node"><title>f3</title>
<ellipse fill="none" stroke="white" cx="108" cy="-18" rx="18" ry="18"/>
<text text-anchor="middle" x="108" y="-14.3" font-family="Times,serif" font-size="14.00" fill="#ffffff">f</text>
</g>
<!-- x3&#45;&gt;f3 -->
<g id="edge9" class="edge"><title>x3&#45;&gt;f3</title>
<path fill="none" stroke="white" d="M54.3059,-18C62.4202,-18 71.3739,-18 79.5625,-18"/>
<polygon fill="white" stroke="white" points="79.7516,-21.5001 89.7516,-18 79.7516,-14.5001 79.7516,-21.5001"/>
</g>
<!-- y0 -->
<g id="node8" class="node"><title>y0</title>
<polygon fill="none" stroke="white" points="216,-198 162,-198 162,-162 216,-162 216,-198"/>
</g>
<!-- f0&#45;&gt;y0 -->
<g id="edge2" class="edge"><title>f0&#45;&gt;y0</title>
<path fill="none" stroke="white" d="M126.142,-180C133.644,-180 142.75,-180 151.642,-180"/>
<polygon fill="white" stroke="white" points="151.874,-183.5 161.874,-180 151.874,-176.5 151.874,-183.5"/>
</g>
<!-- y1 -->
<g id="node9" class="node"><title>y1</title>
<polygon fill="none" stroke="white" points="216,-144 162,-144 162,-108 216,-108 216,-144"/>
</g>
<!-- f1&#45;&gt;y1 -->
<g id="edge4" class="edge"><title>f1&#45;&gt;y1</title>
<path fill="none" stroke="white" d="M126.142,-126C133.644,-126 142.75,-126 151.642,-126"/>
<polygon fill="white" stroke="white" points="151.874,-129.5 161.874,-126 151.874,-122.5 151.874,-129.5"/>
</g>
<!-- y2 -->
<g id="node10" class="node"><title>y2</title>
<polygon fill="none" stroke="white" points="216,-90 162,-90 162,-54 216,-54 216,-90"/>
</g>
<!-- f2&#45;&gt;y2 -->
<g id="edge7" class="edge"><title>f2&#45;&gt;y2</title>
<path fill="none" stroke="white" d="M126.142,-72C133.644,-72 142.75,-72 151.642,-72"/>
<polygon fill="white" stroke="white" points="151.874,-75.5001 161.874,-72 151.874,-68.5001 151.874,-75.5001"/>
</g>
<!-- y3 -->
<g id="node11" class="node"><title>y3</title>
<polygon fill="none" stroke="white" points="216,-36 162,-36 162,-0 216,-0 216,-36"/>
</g>
<!-- f3&#45;&gt;y3 -->
<g id="edge10" class="edge"><title>f3&#45;&gt;y3</title>
<path fill="none" stroke="white" d="M126.142,-18C133.644,-18 142.75,-18 151.642,-18"/>
<polygon fill="white" stroke="white" points="151.874,-21.5001 161.874,-18 151.874,-14.5001 151.874,-21.5001"/>
</g>
</g>
</svg>
