<?xml version="1.0" encoding="UTF-8" standalone="no"?>
<!DOCTYPE svg PUBLIC "-//W3C//DTD SVG 1.1//EN"
 "http://www.w3.org/Graphics/SVG/1.1/DTD/svg11.dtd">
<!-- Generated by graphviz version 2.38.0 (20140413.2041)
 -->
<!-- Title: %3 Pages: 1 -->
<svg width="386pt" height="206pt"
 viewBox="0.00 0.00 386.00 206.00" xmlns="http://www.w3.org/2000/svg" xmlns:xlink="http://www.w3.org/1999/xlink">
<g id="graph0" class="graph" transform="scale(1 1) rotate(0) translate(4 202)">
<title>%3</title>
<polygon fill="none" stroke="none" points="-4,4 -4,-202 382,-202 382,4 -4,4"/>
<!-- a -->
<g id="node1" class="node"><title>a</title>
<polygon fill="none" stroke="white" points="54,-144 0,-144 0,-108 54,-108 54,-144"/>
</g>
<!-- f -->
<g id="node5" class="node"><title>f</title>
<ellipse fill="none" stroke="white" cx="108" cy="-114" rx="18" ry="18"/>
<text text-anchor="middle" x="108" y="-110.3" font-family="Times,serif" font-size="14.00" fill="#ffffff">f</text>
</g>
<!-- a&#45;&gt;f -->
<g id="edge1" class="edge"><title>a&#45;&gt;f</title>
<path fill="none" stroke="white" d="M54.3059,-122.004C62.5114,-120.758 71.5752,-119.381 79.8382,-118.126"/>
<polygon fill="white" stroke="white" points="80.3906,-121.582 89.7516,-116.62 79.3394,-114.662 80.3906,-121.582"/>
</g>
<!-- b -->
<g id="node2" class="node"><title>b</title>
<polygon fill="none" stroke="white" points="54,-90 0,-90 0,-54 54,-54 54,-90"/>
</g>
<!-- b&#45;&gt;f -->
<g id="edge3" class="edge"><title>b&#45;&gt;f</title>
<path fill="none" stroke="white" d="M54.3059,-85.9854C63.5003,-90.8736 73.7723,-96.3346 82.7878,-101.128"/>
<polygon fill="white" stroke="white" points="81.1576,-104.225 91.6304,-105.829 84.4437,-98.0441 81.1576,-104.225"/>
</g>
<!-- g -->
<g id="node6" class="node"><title>g</title>
<ellipse fill="none" stroke="white" cx="270" cy="-68" rx="18" ry="18"/>
<text text-anchor="middle" x="270" y="-64.3" font-family="Times,serif" font-size="14.00" fill="#ffffff">g</text>
</g>
<!-- b&#45;&gt;g -->
<g id="edge6" class="edge"><title>b&#45;&gt;g</title>
<path fill="none" stroke="white" d="M54.25,-71.5643C100.217,-70.8014 194.833,-69.231 241.599,-68.4548"/>
<polygon fill="white" stroke="white" points="241.933,-71.9498 251.874,-68.2843 241.817,-64.9508 241.933,-71.9498"/>
</g>
<!-- c -->
<g id="node3" class="node"><title>c</title>
<polygon fill="none" stroke="white" points="216,-132 162,-132 162,-96 216,-96 216,-132"/>
</g>
<!-- c&#45;&gt;g -->
<g id="edge4" class="edge"><title>c&#45;&gt;g</title>
<path fill="none" stroke="white" d="M216.306,-98.6827C225.634,-93.2514 236.07,-87.1743 245.179,-81.8705"/>
<polygon fill="white" stroke="white" points="247.208,-84.7392 254.088,-76.6827 243.686,-78.69 247.208,-84.7392"/>
</g>
<!-- e -->
<g id="node4" class="node"><title>e</title>
<polygon fill="none" stroke="white" points="378,-86 324,-86 324,-50 378,-50 378,-86"/>
</g>
<!-- f&#45;&gt;c -->
<g id="edge2" class="edge"><title>f&#45;&gt;c</title>
<path fill="none" stroke="white" d="M126.142,-114C133.644,-114 142.75,-114 151.642,-114"/>
<polygon fill="white" stroke="white" points="151.874,-117.5 161.874,-114 151.874,-110.5 151.874,-117.5"/>
</g>
<!-- g&#45;&gt;e -->
<g id="edge5" class="edge"><title>g&#45;&gt;e</title>
<path fill="none" stroke="white" d="M288.142,-68C295.644,-68 304.75,-68 313.642,-68"/>
<polygon fill="white" stroke="white" points="313.874,-71.5001 323.874,-68 313.874,-64.5001 313.874,-71.5001"/>
</g>
<!-- x -->
<g id="node7" class="node"><title>x</title>
<polygon fill="none" stroke="white" points="54,-36 0,-36 0,-0 54,-0 54,-36"/>
</g>
<!-- ff -->
<g id="node12" class="node"><title>ff</title>
<ellipse fill="none" stroke="white" cx="108" cy="-19" rx="18" ry="18"/>
<text text-anchor="middle" x="108" y="-15.3" font-family="Times,serif" font-size="14.00" fill="#ffffff">f</text>
</g>
<!-- x&#45;&gt;ff -->
<g id="edge7" class="edge"><title>x&#45;&gt;ff</title>
<path fill="none" stroke="white" d="M54.3059,-18.333C62.4202,-18.4357 71.3739,-18.549 79.5625,-18.6527"/>
<polygon fill="white" stroke="white" points="79.7081,-22.1547 89.7516,-18.7817 79.7967,-15.1553 79.7081,-22.1547"/>
</g>
<!-- y -->
<g id="node8" class="node"><title>y</title>
<polygon fill="none" stroke="white" points="216,-39 162,-39 162,-3 216,-3 216,-39"/>
</g>
<!-- y&#45;&gt;g -->
<g id="edge9" class="edge"><title>y&#45;&gt;g</title>
<path fill="none" stroke="white" d="M216.306,-36.6503C225.732,-42.2581 236.29,-48.5397 245.466,-53.9989"/>
<polygon fill="white" stroke="white" points="243.705,-57.0235 254.088,-59.1286 247.284,-51.0077 243.705,-57.0235"/>
</g>
<!-- xx -->
<g id="node9" class="node"><title>xx</title>
<polygon fill="none" stroke="white" points="54,-198 0,-198 0,-162 54,-162 54,-198"/>
</g>
<!-- h -->
<g id="node13" class="node"><title>h</title>
<ellipse fill="none" stroke="white" cx="108" cy="-180" rx="18" ry="18"/>
<text text-anchor="middle" x="108" y="-176.3" font-family="Times,serif" font-size="14.00" fill="#ffffff">h</text>
</g>
<!-- xx&#45;&gt;h -->
<g id="edge10" class="edge"><title>xx&#45;&gt;h</title>
<path fill="none" stroke="white" d="M54.3059,-180C62.4202,-180 71.3739,-180 79.5625,-180"/>
<polygon fill="white" stroke="white" points="79.7516,-183.5 89.7516,-180 79.7516,-176.5 79.7516,-183.5"/>
</g>
<!-- yy -->
<g id="node10" class="node"><title>yy</title>
<polygon fill="none" stroke="white" points="216,-198 162,-198 162,-162 216,-162 216,-198"/>
</g>
<!-- h2 -->
<g id="node14" class="node"><title>h2</title>
<ellipse fill="none" stroke="white" cx="270" cy="-180" rx="18" ry="18"/>
<text text-anchor="middle" x="270" y="-176.3" font-family="Times,serif" font-size="14.00" fill="#ffffff">h</text>
</g>
<!-- yy&#45;&gt;h2 -->
<g id="edge12" class="edge"><title>yy&#45;&gt;h2</title>
<path fill="none" stroke="white" d="M216.306,-180C224.42,-180 233.374,-180 241.562,-180"/>
<polygon fill="white" stroke="white" points="241.752,-183.5 251.752,-180 241.752,-176.5 241.752,-183.5"/>
</g>
<!-- zz -->
<g id="node11" class="node"><title>zz</title>
<polygon fill="none" stroke="white" points="378,-198 324,-198 324,-162 378,-162 378,-198"/>
</g>
<!-- ff&#45;&gt;y -->
<g id="edge8" class="edge"><title>ff&#45;&gt;y</title>
<path fill="none" stroke="white" d="M126.142,-19.434C133.644,-19.6239 142.75,-19.8544 151.642,-20.0796"/>
<polygon fill="white" stroke="white" points="151.789,-23.5843 161.874,-20.3386 151.966,-16.5865 151.789,-23.5843"/>
</g>
<!-- h&#45;&gt;yy -->
<g id="edge11" class="edge"><title>h&#45;&gt;yy</title>
<path fill="none" stroke="white" d="M126.142,-180C133.644,-180 142.75,-180 151.642,-180"/>
<polygon fill="white" stroke="white" points="151.874,-183.5 161.874,-180 151.874,-176.5 151.874,-183.5"/>
</g>
<!-- h2&#45;&gt;zz -->
<g id="edge13" class="edge"><title>h2&#45;&gt;zz</title>
<path fill="none" stroke="white" d="M288.142,-180C295.644,-180 304.75,-180 313.642,-180"/>
<polygon fill="white" stroke="white" points="313.874,-183.5 323.874,-180 313.874,-176.5 313.874,-183.5"/>
</g>
</g>
</svg>
